<svg xmlns="http://www.w3.org/2000/svg" version="1.1" xmlns:xlink="http://www.w3.org/1999/xlink" xmlns:svgjs="http://svgjs.dev/svgjs" width="1000" height="750" viewBox="0 0 1000 750"><rect width="1000" height="750" fill="#ffffff"></rect><g transform="matrix(0.834,0,0,0.834,82.49454545454546,115.4193570850203)"><svg viewBox="0 0 396 247" data-background-color="#ffffff" preserveAspectRatio="xMidYMid meet" height="623" width="1000" xmlns="http://www.w3.org/2000/svg" xmlns:xlink="http://www.w3.org/1999/xlink"><g id="tight-bounds" transform="matrix(1,0,0,1,0.2400000000000091,-0.09999999999999432)"><svg viewBox="0 0 395.52 247.2" height="247.2" width="395.52"><g><svg></svg></g><g><svg viewBox="0 0 395.52 247.2" height="247.2" width="395.52"><g transform="matrix(1,0,0,1,39.55199999999999,53.16922589167767)"><svg viewBox="0 0 316.416 140.86154821664465" height="140.86154821664465" width="316.416"><g><svg viewBox="0 0 316.416 140.86154821664465" height="140.86154821664465" width="316.416"><g><svg viewBox="0 0 316.416 140.86154821664465" height="140.86154821664465" width="316.416"><g><svg viewBox="0 0 316.416 140.86154821664465" height="140.86154821664465" width="316.416"><g><svg viewBox="0 0 316.416 140.86154821664465" height="140.86154821664465" width="316.416"><g><svg viewBox="0 0 316.416 140.86154821664465" height="140.86154821664465" width="316.416"><g transform="matrix(1,0,0,1,0,0)"><svg width="316.416" viewBox="1.100000023841858 -33.70000076293945 75.70000457763672 33.70000076293945" height="140.86154821664465" data-palette-color="#ee3e38"><path d="M35.95-3.5L39.1-2.75 39.05 0 25.9 0 16.7-13.15 15.85-12.25 15.85-3.4 19.5-2.75 19.45 0 1.4 0 1.1-1.6Q2.95-3 5.35-4.2L5.35-4.2 5.35-29.9 1.5-30.55 1.55-33.3 19.8-33.3 20.1-31.7Q18.25-30.3 15.85-29.1L15.85-29.1 15.85-19.45 25.7-30 22.55-30.55 22.6-33.3 36.6-33.3 36.9-31.7Q35.65-30.75 32.05-29.3L32.05-29.3 23.5-20.3 35.95-3.5ZM58.45-33.7L58.45-33.7Q64.3-33.7 68.45-31.28 72.6-28.85 74.7-25 76.8-21.15 76.8-16.95L76.8-16.95Q76.8-9.55 72.05-4.85 67.3-0.15 59.4 0L59.4 0 40.75 0 40.45-1.6Q42.3-3 44.7-4.2L44.7-4.2 44.7-29.95 41.15-30.55 41.2-33.3Q49-33.7 58.45-33.7ZM58.15-5L58.15-5Q61.65-5 63.8-8.22 65.95-11.45 65.95-16.35L65.95-16.35Q65.95-20.15 64.5-23.65 63.05-27.15 60.55-28.85L60.55-28.85 55.2-28.1 55.2-5.5Q56.7-5 58.15-5Z" opacity="1" transform="matrix(1,0,0,1,0,0)" fill="#ee3e38" class="undefined-text-0" data-fill-palette-color="primary" id="text-0"></path></svg></g></svg></g></svg></g></svg></g></svg></g></svg></g></svg></g><g mask="url(#969dfb30-6152-45c5-bb09-177833be1a29)"><g transform="matrix(2.938284357439034, 0, 0, 2.938284357439034, 67.69254058387088, 1)"><svg xmlns="http://www.w3.org/2000/svg" xmlns:xlink="http://www.w3.org/1999/xlink" version="1.1" x="0" y="0" viewBox="6.167074203491211 8.44994068145752 88.53292846679688 83.45005798339844" style="enable-background:new 0 0 100 100;" xml:space="preserve" height="83.45005798339844" width="88.53292846679688" class="icon-none" data-fill-palette-color="accent" id="none"><path d="M72.4 91.9H48.3c-7.7 0-14.8-3.9-18.8-10.5L9.5 49.3c-5-8-4.3-18.3 1.6-25.6l5.6-7c3.9-4.8 9.5-7.8 15.7-8.2 6.2-0.4 12.1 1.6 16.7 5.9l38.5 35.8c4.5 4.2 7.1 10.1 7.1 16.2v3.3C94.6 82 84.6 91.9 72.4 91.9zM13.4 25.6C8.3 32 7.8 40.8 12.1 47.7L32 79.8c3.5 5.7 9.6 9.1 16.3 9.1h24.2c10.6 0 19.2-8.6 19.2-19.2v-3.3c0-5.3-2.2-10.4-6.1-14L47 16.6c-3.9-3.7-9.1-5.5-14.4-5.1-5.4 0.4-10.2 2.9-13.5 7.1L13.4 25.6z" fill="#ee3e38" data-fill-palette-color="accent"></path></svg></g></g></svg></g><defs><mask id="c83176a2-1371-4381-9844-4610b420c630"><rect width="640" height="400" fill="white"></rect><rect width="348.05760000000004" height="207.36960993022984" fill="black" x="145.97119999999998" y="96.31519503488508" id="transform-me" transform="matrix(1,0,0,1,-122.24000000000001,-76.4)"></rect></mask><mask id="969dfb30-6152-45c5-bb09-177833be1a29"><rect width="640" height="400" fill="white"></rect><rect width="348.05760000000004" height="207.36960993022984" fill="black" x="145.97119999999998" y="96.31519503488508" id="transform-me" transform="matrix(1,0,0,1,-122.24000000000001,-76.4)"></rect></mask></defs></svg><rect width="395.52" height="247.2" fill="none" stroke="none" visibility="hidden"></rect></g></svg></g></svg>